<?xml version="1.0" encoding="UTF-8" standalone="no"?>
<svg
   version="1.1"
   width="331"
   height="331"
   viewBox="0 0 331 331"
   id="svg1"
   sodipodi:docname="favicon.svg"
   inkscape:version="1.3.2 (091e20e, 2023-11-25, custom)"
   xmlns:inkscape="http://www.inkscape.org/namespaces/inkscape"
   xmlns:sodipodi="http://sodipodi.sourceforge.net/DTD/sodipodi-0.dtd"
   xmlns="http://www.w3.org/2000/svg"
   xmlns:svg="http://www.w3.org/2000/svg">
  <defs
     id="defs1" />
  <sodipodi:namedview
     id="namedview1"
     pagecolor="#ffffff"
     bordercolor="#999999"
     borderopacity="1"
     inkscape:showpageshadow="2"
     inkscape:pageopacity="0"
     inkscape:pagecheckerboard="0"
     inkscape:deskcolor="#d1d1d1"
     inkscape:zoom="1.2636062"
     inkscape:cx="193.49383"
     inkscape:cy="373.92979"
     inkscape:window-width="3440"
     inkscape:window-height="1369"
     inkscape:window-x="1912"
     inkscape:window-y="-8"
     inkscape:window-maximized="1"
     inkscape:current-layer="svg1" />
  <style
     id="style1">@media (prefers-color-scheme: light) { :root { filter: none; } }
@media (prefers-color-scheme: dark) { :root { filter: none; } }
</style>
  <rect
     style="fill:#e0e9ac;fill-opacity:1;stroke:#000000;stroke-width:0.377953;stroke-linecap:round;stroke-linejoin:round;stroke-miterlimit:1.9;paint-order:stroke fill markers"
     id="rect1"
     width="331"
     height="331"
     x="0"
     y="0" />
  <path
     d="m 97.479711,204.05841 q 2.172305,0.67884 4.344609,0.95038 2.17231,0.13577 4.34461,0.13577 5.43076,0 10.45422,-1.49346 5.02345,-1.49346 9.36806,-4.20884 4.48038,-2.85115 7.8746,-6.78845 3.53,-4.07307 5.7023,-8.96076 l 27.15381,27.28958 q -5.15922,7.33153 -11.94767,13.1696 -6.65269,5.83807 -14.52729,9.91114 -7.73884,4.07307 -16.42806,6.1096 -8.55344,2.17231 -17.64997,2.17231 -15.341902,0 -28.918806,-5.7023 -13.441135,-5.7023 -23.623812,-15.88498 -10.046909,-10.18268 -15.884978,-24.16689 -5.838069,-14.11998 -5.838069,-30.95534 0,-17.24267 5.838069,-31.49842 5.838069,-14.25574 15.884978,-24.30265 10.182677,-10.046913 23.623812,-15.613443 13.576904,-5.566531 28.918806,-5.566531 9.09653,0 17.78574,2.172305 8.68922,2.172305 16.42806,6.245376 7.8746,4.073073 14.66305,10.046913 6.78846,5.83806 11.94768,13.16959 z m 19.007669,-76.43797 q -2.57961,-0.95038 -5.15923,-1.22192 -2.44384,-0.27154 -5.15922,-0.27154 -7.603066,0 -14.391518,2.85115 -6.652683,2.71538 -11.676138,7.87461 -4.887685,5.15922 -7.738835,12.49075 -2.85115,7.19576 -2.85115,16.29228 0,2.03654 0.135769,4.61615 0.271538,2.57961 0.678845,5.29499 0.543077,2.57961 1.221922,5.02346 0.678845,2.44384 1.764997,4.34461 z M 299.09674,239.6299 H 177.85499 L 239.08682,131.42197 H 177.85499 V 94.492795 H 299.09674 L 237.8649,202.70072 h 61.23184 z"
     id="text1"
     style="font-size:278.055px;line-height:0.8;font-family:Righteous;-inkscape-font-specification:Righteous;text-align:center;letter-spacing:0px;word-spacing:0px;text-anchor:middle;stroke-width:0.377953;stroke-linecap:round;stroke-linejoin:round;stroke-miterlimit:1.9;paint-order:stroke fill markers"
     aria-label="ez" />
</svg>
