<?xml version="1.0" encoding="UTF-8" standalone="no"?>
<!-- Created with Inkscape (http://www.inkscape.org/) -->

<svg
   width="235"
   height="235"
   viewBox="0 0 62.177084 62.177083"
   version="1.1"
   id="svg1"
   xml:space="preserve"
   sodipodi:docname="sentinowl-logo.svg"
   inkscape:version="1.3.2 (091e20e, 2023-11-25, custom)"
   xmlns:inkscape="http://www.inkscape.org/namespaces/inkscape"
   xmlns:sodipodi="http://sodipodi.sourceforge.net/DTD/sodipodi-0.dtd"
   xmlns="http://www.w3.org/2000/svg"
   xmlns:svg="http://www.w3.org/2000/svg"><sodipodi:namedview
     id="namedview1"
     pagecolor="#ffffff"
     bordercolor="#999999"
     borderopacity="1"
     inkscape:showpageshadow="2"
     inkscape:pageopacity="0"
     inkscape:pagecheckerboard="0"
     inkscape:deskcolor="#d1d1d1"
     inkscape:document-units="mm"
     showborder="true"
     inkscape:zoom="3.514124"
     inkscape:cx="34.859328"
     inkscape:cy="134.74197"
     inkscape:window-width="3440"
     inkscape:window-height="1369"
     inkscape:window-x="-8"
     inkscape:window-y="-8"
     inkscape:window-maximized="1"
     inkscape:current-layer="svg1" /><defs
     id="defs1" /><g
     id="layer1"
     transform="matrix(1.003153,0,0,1.0032173,-73.757275,-36.964048)"
     style="stroke-width:0.996825"><path
       d="m 79.310921,74.260583 c -1.466436,-3.911101 -0.246792,-9.437425 2.570386,-11.461315 l -2.23914,-0.699699 c -3.799201,-1.18725 -6.444437,8.900371 -3.066996,10.701672 z"
       style="fill:#ffffff;stroke:#1a1a1a;stroke-width:2.99047;stroke-linejoin:round"
       id="path46" /><path
       d="m 121.22981,85.720866 c -3.16229,-1.392857 -5.24513,-3.259837 -6.61923,-5.100464 -0.88763,2.039927 -2.18633,3.862598 -3.76567,5.242057 5.99632,4.51004 8.55626,2.399973 10.3849,-0.141593 z"
       style="fill:#ffffff;stroke:#1a1a1a;stroke-width:2.99047;stroke-linejoin:round"
       id="path44" /><path
       d="m 100.41351,87.452543 c -8.815311,-5.253625 0.59446,-18.258113 3.75222,-22.196061 -8.704345,1.868756 -14.272823,0.784698 -18.147725,-3.049943 -1.491669,-0.25189 -2.839272,-0.287824 -4.136698,0.592729 -2.817178,2.02389 -4.036822,7.550214 -2.570386,11.461315 0.403455,1.076046 1.007072,2.031325 1.840198,2.755388 z"
       style="fill:#ffffff;stroke:#1a1a1a;stroke-width:2.99047;stroke-linejoin:round"
       id="path45" /><path
       d="m 78.999829,47.000232 c 1.725506,6.902024 3.786035,12.007746 7.018176,15.206307 3.874902,3.834641 8.584679,5.095477 17.289025,3.226721 6.66921,-2.279056 8.1226,-0.265183 15.2381,6.037861 0.58566,-4.335227 3.73443,-7.340448 7.23363,-9.629906 8.0526,-5.717675 6.52033,-12.032301 -3.77806,-14.840955 3.99993,12.999791 -5.9996,-2.999975 -6.99958,11.999784 C 102.00049,47.00013 100.99948,62.999975 78.999829,47.000232 Z"
       style="fill:#ffffff;stroke:#1a1a1a;stroke-width:2.99047;stroke-linejoin:round"
       id="path42" /><path
       d="m 127.17312,61.940922 c -2.96297,0.07798 -5.39616,2.272064 -6.8414,4.706287 -0.88688,1.479477 -1.47798,3.130282 -1.78698,4.8244 3.19946,3.127699 5.49354,7.229366 6.15208,11.680424 3.13238,0.156299 5.77815,-2.159584 7.27426,-4.7187 2.16558,-3.700004 2.76847,-8.471417 0.9847,-12.442203 -1.01174,-2.259466 -3.19474,-4.152152 -5.78266,-4.050208 z"
       style="fill:#ffffff;stroke:#1a1a1a;stroke-width:2.99047;stroke-linejoin:round"
       id="path41" /><path
       d="m 124.69678,83.15203 c -0.645,-4.3419 -2.83984,-8.359626 -5.92502,-11.451723 -1.77282,-1.817318 -3.81211,-3.339997 -5.80501,-4.9018 2.51816,2.501865 3.29848,6.327022 2.78581,9.751616 -0.20582,1.397514 -0.5648,2.778603 -1.14217,4.070281 2.49053,3.363332 6.3913,5.395281 10.38954,6.379456 4.8e-4,-1.28785 -0.0988,-2.576547 -0.30315,-3.84783 z"
       style="fill:#ffffff;stroke:#1a1a1a;stroke-width:2.99047;stroke-linejoin:round"
       id="path43" /><path
       d="m 107.74536,64.461698 c -4.15021,0.114842 -7.784619,2.972357 -9.736092,6.507913 -2.263114,4.013474 -2.85072,9.263772 -0.567471,13.397062 1.001755,1.808209 2.683603,3.226932 4.667063,3.827159 3.4764,1.082754 7.21246,-0.602894 9.59402,-3.152613 3.52489,-3.747253 5.17636,-9.417994 3.58733,-14.389884 -0.58518,-1.839619 -1.70973,-3.512671 -3.28168,-4.64732 -1.22416,-0.904222 -2.72428,-1.531952 -4.26317,-1.542317 z"
       style="fill:#ffffff;stroke:#1a1a1a;stroke-width:2.99047;stroke-linejoin:round"
       id="path40" /><path
       d="m 107.11026,68.572604 c -2.44186,0.06912 -4.61834,1.643155 -5.90448,3.649658 -1.697893,2.60614 -2.266451,6.091364 -0.98698,8.988201 0.60499,1.353828 1.73928,2.505294 3.17038,2.953928 1.99757,0.697352 4.21596,-0.134295 5.72287,-1.503141 2.2929,-2.084238 3.51716,-5.294791 3.21341,-8.375689 -0.17936,-1.797967 -0.97207,-3.611309 -2.46181,-4.697609 -0.78585,-0.59126 -1.75783,-1.010082 -2.75339,-1.015348 z"
       style="fill:#1a1a1a;stroke:none;stroke-width:2.99047;stroke-linejoin:round"
       id="path40-8" /><path
       d="m 104.24968,67.730117 c -1.2836,0.04101 -2.38896,0.966131 -2.94548,2.079412 -0.66485,1.270275 -0.77393,2.916722 0.0243,4.154341 0.54308,0.820106 1.6341,1.24657 2.58096,0.939766 1.21691,-0.3529 2.0891,-1.44114 2.49423,-2.602893 0.41298,-1.181371 0.38008,-2.608919 -0.40559,-3.632229 -0.4205,-0.532039 -1.05828,-0.923282 -1.74841,-0.938397 z"
       style="fill:#ffffff;stroke:none;stroke-width:2.99047;stroke-linejoin:round"
       id="path40-8-8" /><path
       style="fill:#1a1a1a;stroke:none;stroke-width:2.49848;stroke-linejoin:round"
       id="path47"
       d="m 130.37136,72.915032 c -0.22578,2.483604 -1.62119,4.682944 -3.24799,5.46128 -1.72905,0.827253 -3.74206,0.05941 -4.58873,-2.303258 -1.17788,-3.286937 0.31996,-7.851583 3.49938,-8.718699 2.85579,-0.778852 4.63791,2.254378 4.33734,5.560677 z"
       transform="matrix(1.1969141,0,0,1.1969141,-24.861042,-14.781849)" /><path
       style="fill:#ffffff;stroke:none;stroke-width:5.67444;stroke-linejoin:round"
       id="path47-0"
       d="m 130.37136,72.915032 c -0.22578,2.483604 -1.62119,4.682944 -3.24799,5.46128 -1.72905,0.827253 -3.74206,0.05941 -4.58873,-2.303258 -1.17788,-3.286937 0.31996,-7.851583 3.49938,-8.718699 2.85579,-0.778852 4.63791,2.254378 4.33734,5.560677 z"
       transform="matrix(0.52700829,0,0,0.52700829,58.275864,29.547094)" /></g></svg>
